<?xml version="1.0" encoding="UTF-8" standalone="no"?>
<!DOCTYPE svg PUBLIC "-//W3C//DTD SVG 1.1//EN" "http://www.w3.org/Graphics/SVG/1.1/DTD/svg11.dtd">
<svg width="100%" height="100%" viewBox="0 0 200 200" version="1.1" xmlns="http://www.w3.org/2000/svg" xmlns:xlink="http://www.w3.org/1999/xlink" xml:space="preserve" xmlns:serif="http://www.serif.com/" style="fill-rule:evenodd;clip-rule:evenodd;stroke-linejoin:round;stroke-miterlimit:2;">
    <g transform="matrix(0.850757,0,0,0.850757,14.9243,14.9243)">
        <path d="M214.147,0C214.147,-7.813 207.813,-14.147 200,-14.147L-0,-14.147C-7.813,-14.147 -14.147,-7.813 -14.147,-0L-14.147,200C-14.147,207.813 -7.813,214.147 -0,214.147L200,214.147C207.813,214.147 214.147,207.813 214.147,200L214.147,0Z" style="fill:rgb(233,20,55);"/>
    </g>
    <g transform="matrix(0.784541,0,0,0.784541,-17.926,109.678)">
        <path d="M253.039,82.366L160.648,82.366L160.648,79.132C168.992,78.382 174.804,76.976 178.086,74.913C183.898,71.257 186.804,66.194 186.804,59.726C186.804,55.882 185.492,50.726 182.867,44.257L180.476,38.351L166.976,5.163L107.351,-0.602L97.789,24.569L94.273,33.288C90.054,43.601 87.945,51.71 87.945,57.616C87.945,61.085 88.718,64.319 90.265,67.319C91.812,70.319 93.898,72.757 96.523,74.632C100.179,77.163 104.867,78.663 110.586,79.132L110.586,82.366L47.586,82.366L47.586,79.132C52.554,78.851 56.914,77.632 60.664,75.476C64.414,73.319 68.07,69.851 71.633,65.069C74.633,61.226 77.562,56.28 80.422,50.234C83.281,44.187 87.054,35.116 91.742,23.023L143.211,-109.587L151.226,-109.587L212.398,38.21C216.992,49.366 220.648,57.335 223.367,62.116C226.086,66.898 229.039,70.507 232.226,72.944C234.476,74.632 237.054,75.921 239.961,76.812C242.867,77.702 247.226,78.476 253.039,79.132L253.039,82.366ZM160.648,-13.61L135.195,-73.446L107.351,-0.602L160.648,-13.61Z" style="fill:rgb(238,238,238);fill-rule:nonzero;"/>
    </g>
</svg>
